<svg width="237" height="120" viewBox="0 0 237 120" fill="none" xmlns="http://www.w3.org/2000/svg">
<rect width="219.532" height="65.8595" rx="12" fill="#376AED"/>
<path d="M11.7087 12.7322H25.7018C27.4462 12.7322 29.0579 12.9407 30.5368 13.3579C32.0537 13.775 33.343 14.4007 34.4048 15.235C35.5045 16.0314 36.3578 17.0742 36.9645 18.3635C37.6092 19.615 37.9315 21.0939 37.9315 22.8004C37.9315 25.1136 37.2869 27.0097 35.9975 28.4886C34.7082 29.9297 33.0396 30.9915 30.9919 31.6741V31.7878C32.2054 31.8637 33.343 32.186 34.4048 32.7548C35.4666 33.2857 36.3767 34.0062 37.1352 34.9164C37.9315 35.7886 38.5572 36.8124 39.0123 37.988C39.4674 39.1636 39.6949 40.434 39.6949 41.7991C39.6949 43.6194 39.3157 45.2311 38.5572 46.6342C37.8367 47.9993 36.8318 49.156 35.5425 50.104C34.2531 51.052 32.7552 51.7726 31.0487 52.2655C29.3423 52.7585 27.5031 53.005 25.5311 53.005H11.7087V12.7322ZM17.1694 29.4556H24.621C25.6449 29.4556 26.6119 29.3608 27.522 29.1712C28.4321 28.9437 29.2285 28.5834 29.9111 28.0905C30.5937 27.5975 31.1246 26.9718 31.5038 26.2133C31.9209 25.4549 32.1295 24.5258 32.1295 23.4261C32.1295 21.8334 31.6176 20.4492 30.5937 19.2737C29.5698 18.0981 27.9581 17.5103 25.7587 17.5103H17.1694V29.4556ZM17.1694 48.2269H25.1898C26.0241 48.2269 26.9342 48.151 27.9202 47.9993C28.9441 47.8097 29.8921 47.4684 30.7643 46.9755C31.6365 46.4446 32.376 45.743 32.9827 44.8708C33.5895 43.9986 33.8929 42.842 33.8929 41.401C33.8929 39.0119 33.1155 37.2296 31.5607 36.054C30.0059 34.8405 27.9012 34.2338 25.2467 34.2338H17.1694V48.2269Z" fill="white"/>
<path d="M63.541 12.7322H69.0017V47.8856H87.4885V53.005H63.541V12.7322Z" fill="white"/>
<path d="M127.527 54.0289C124.456 54.0289 121.631 53.498 119.052 52.4362C116.473 51.3365 114.255 49.8385 112.397 47.9425C110.576 46.0464 109.135 43.809 108.074 41.2303C107.05 38.6516 106.538 35.8644 106.538 32.8686C106.538 29.8728 107.05 27.0855 108.074 24.5069C109.135 21.9282 110.576 19.6908 112.397 17.7947C114.255 15.8986 116.473 14.4197 119.052 13.3579C121.631 12.2582 124.456 11.7083 127.527 11.7083C130.599 11.7083 133.424 12.2582 136.003 13.3579C138.582 14.4197 140.781 15.8986 142.601 17.7947C144.459 19.6908 145.9 21.9282 146.924 24.5069C147.986 27.0855 148.517 29.8728 148.517 32.8686C148.517 35.8644 147.986 38.6516 146.924 41.2303C145.9 43.809 144.459 46.0464 142.601 47.9425C140.781 49.8385 138.582 51.3365 136.003 52.4362C133.424 53.498 130.599 54.0289 127.527 54.0289ZM127.527 48.9095C129.841 48.9095 131.926 48.4923 133.785 47.6581C135.643 46.7859 137.235 45.6292 138.563 44.1882C139.89 42.7472 140.914 41.0597 141.634 39.1257C142.355 37.1537 142.715 35.068 142.715 32.8686C142.715 30.6691 142.355 28.6024 141.634 26.6684C140.914 24.6965 139.89 22.99 138.563 21.549C137.235 20.1079 135.643 18.9703 133.785 18.136C131.926 17.2638 129.841 16.8277 127.527 16.8277C125.214 16.8277 123.129 17.2638 121.27 18.136C119.412 18.9703 117.819 20.1079 116.492 21.549C115.165 22.99 114.141 24.6965 113.421 26.6684C112.7 28.6024 112.34 30.6691 112.34 32.8686C112.34 35.068 112.7 37.1537 113.421 39.1257C114.141 41.0597 115.165 42.7472 116.492 44.1882C117.819 45.6292 119.412 46.7859 121.27 47.6581C123.129 48.4923 125.214 48.9095 127.527 48.9095Z" fill="white"/>
<path d="M206.672 30.4795V50.3315C205.686 50.9383 204.567 51.4692 203.316 51.9242C202.064 52.3793 200.756 52.7585 199.391 53.0619C198.064 53.4032 196.698 53.6497 195.295 53.8014C193.93 53.953 192.641 54.0289 191.427 54.0289C188.014 54.0289 184.962 53.4601 182.269 52.3224C179.615 51.1848 177.358 49.6489 175.5 47.7149C173.68 45.7809 172.277 43.5435 171.291 41.0028C170.343 38.4241 169.869 35.7127 169.869 32.8686C169.869 29.8728 170.381 27.0855 171.405 24.5069C172.466 21.9282 173.907 19.6908 175.728 17.7947C177.586 15.8986 179.804 14.4197 182.383 13.3579C184.962 12.2582 187.787 11.7083 190.858 11.7083C194.575 11.7083 197.608 12.1823 199.96 13.1303C202.311 14.0405 204.283 15.3108 205.875 16.9415L202.007 21.0939C200.339 19.5012 198.576 18.4015 196.717 17.7947C194.859 17.15 192.906 16.8277 190.858 16.8277C188.545 16.8277 186.46 17.2638 184.601 18.136C182.743 18.9703 181.15 20.1079 179.823 21.549C178.496 22.99 177.472 24.6965 176.752 26.6684C176.031 28.6024 175.671 30.6691 175.671 32.8686C175.671 35.1439 176.069 37.2675 176.865 39.2394C177.662 41.1734 178.761 42.861 180.165 44.302C181.568 45.743 183.217 46.8807 185.113 47.7149C187.009 48.5113 189.076 48.9095 191.313 48.9095C193.247 48.9095 195.068 48.7388 196.774 48.3975C198.519 48.0183 199.998 47.4874 201.211 46.8048V35.599H192.281V30.4795H206.672Z" fill="white"/>
<path d="M78.5283 87.4063C77.3907 85.9274 75.9497 84.7897 74.2053 83.9934C72.4609 83.197 70.6596 82.7988 68.8014 82.7988C66.5261 82.7988 64.4594 83.2349 62.6012 84.1071C60.781 84.9414 59.2072 86.098 57.88 87.577C56.5906 89.0559 55.5857 90.8003 54.8652 92.8102C54.1447 94.7821 53.7844 96.9057 53.7844 99.181C53.7844 101.305 54.1257 103.314 54.8083 105.211C55.4909 107.107 56.4769 108.775 57.7662 110.216C59.0556 111.657 60.6293 112.795 62.4875 113.629C64.3456 114.463 66.4503 114.881 68.8014 114.881C71.1146 114.881 73.1435 114.407 74.8879 113.459C76.6323 112.51 78.1112 111.183 79.3247 109.477L83.9322 112.947C83.6288 113.364 83.0979 113.97 82.3395 114.767C81.581 115.525 80.5761 116.303 79.3247 117.099C78.0733 117.857 76.5564 118.521 74.7741 119.09C73.0297 119.697 71.0009 120 68.6877 120C65.5022 120 62.6202 119.393 60.0415 118.18C57.5008 116.966 55.3203 115.374 53.5 113.402C51.7177 111.43 50.3525 109.211 49.4045 106.746C48.4564 104.244 47.9824 101.722 47.9824 99.181C47.9824 96.0714 48.4944 93.2083 49.5182 90.5917C50.5421 87.9372 51.9642 85.6619 53.7844 83.7658C55.6426 81.8318 57.861 80.3339 60.4397 79.2721C63.0184 78.2103 65.8625 77.6794 68.9721 77.6794C71.6266 77.6794 74.2242 78.1913 76.765 79.2152C79.3437 80.2391 81.4483 81.8129 83.0789 83.9365L78.5283 87.4063Z" fill="#376AED"/>
<path d="M106.539 78.7033H112V113.857H130.487V118.976H106.539V78.7033Z" fill="#376AED"/>
<path d="M156.76 78.7033V103.39C156.76 104.642 156.931 105.95 157.272 107.315C157.613 108.642 158.182 109.875 158.979 111.013C159.775 112.15 160.818 113.079 162.107 113.8C163.396 114.52 164.989 114.881 166.885 114.881C168.781 114.881 170.374 114.52 171.663 113.8C172.953 113.079 173.996 112.15 174.792 111.013C175.588 109.875 176.157 108.642 176.498 107.315C176.84 105.95 177.01 104.642 177.01 103.39V78.7033H182.471V104.244C182.471 106.595 182.073 108.737 181.277 110.671C180.48 112.567 179.38 114.217 177.977 115.62C176.574 117.023 174.925 118.104 173.029 118.862C171.132 119.621 169.085 120 166.885 120C164.686 120 162.638 119.621 160.742 118.862C158.846 118.104 157.196 117.023 155.793 115.62C154.39 114.217 153.29 112.567 152.494 110.671C151.698 108.737 151.299 106.595 151.299 104.244V78.7033H156.76Z" fill="#376AED"/>
<path d="M208.093 78.7033H222.086C223.83 78.7033 225.442 78.9119 226.921 79.329C228.438 79.7461 229.727 80.3718 230.789 81.2061C231.889 82.0025 232.742 83.0453 233.349 84.3347C233.993 85.5861 234.316 87.065 234.316 88.7715C234.316 91.0847 233.671 92.9808 232.382 94.4598C231.092 95.9008 229.424 96.9626 227.376 97.6452V97.7589C228.59 97.8348 229.727 98.1571 230.789 98.7259C231.851 99.2568 232.761 99.9774 233.519 100.887C234.316 101.76 234.942 102.784 235.397 103.959C235.852 105.135 236.079 106.405 236.079 107.77C236.079 109.591 235.7 111.202 234.941 112.605C234.221 113.97 233.216 115.127 231.927 116.075C230.637 117.023 229.139 117.744 227.433 118.237C225.727 118.73 223.887 118.976 221.915 118.976H208.093V78.7033ZM213.554 95.4268H221.005C222.029 95.4268 222.996 95.3319 223.906 95.1423C224.816 94.9148 225.613 94.5546 226.295 94.0616C226.978 93.5686 227.509 92.9429 227.888 92.1845C228.305 91.426 228.514 90.4969 228.514 89.3972C228.514 87.8045 228.002 86.4204 226.978 85.2448C225.954 84.0692 224.342 83.4814 222.143 83.4814H213.554V95.4268ZM213.554 114.198H221.574C222.408 114.198 223.319 114.122 224.304 113.97C225.328 113.781 226.276 113.44 227.149 112.947C228.021 112.416 228.76 111.714 229.367 110.842C229.974 109.97 230.277 108.813 230.277 107.372C230.277 104.983 229.5 103.201 227.945 102.025C226.39 100.812 224.286 100.205 221.631 100.205H213.554V114.198Z" fill="#376AED"/>
</svg>
